<svg width="32" height="32" viewBox="0 0 32 32" fill="none" xmlns="http://www.w3.org/2000/svg">
<ellipse cx="16" cy="25.5" rx="14" ry="4.5" fill="#CFDBE9"/>
<path d="M16 2C11.0307 2 7 5.92192 7 10.7572C7 14.7232 13.0551 23.1111 15.2321 25.9986C15.6212 26.5147 16.3788 26.5147 16.7679 25.9986C18.9449 23.1111 25 14.7232 25 10.7572C25 5.92192 20.9785 2 16 2ZM16 14.3478C13.9663 14.3478 12.3098 12.745 12.3098 10.7572C12.3098 8.76934 13.9663 7.16655 16 7.16655C18.0337 7.16655 19.6902 8.76934 19.6902 10.7572C19.6902 12.745 18.0429 14.3478 16 14.3478Z" fill="#00C274"/>
</svg>
