<svg width="24" height="24" viewBox="0 0 24 24" fill="none" xmlns="http://www.w3.org/2000/svg">
<path fill-rule="evenodd" clip-rule="evenodd" d="M17 1C20.3137 1 23 3.68629 23 7V17C23 20.3137 20.3137 23 17 23H7C3.68629 23 1 20.3137 1 17V7C1 3.68629 3.68629 1 7 1H17ZM17 3H7C4.79086 3 3 4.79086 3 7V17C3 19.2091 4.79086 21 7 21H17C19.2091 21 21 19.2091 21 17V7C21 4.79086 19.2091 3 17 3ZM12.5483 6.98226L12.7767 7.01082L13.0004 7.04915C15.0717 7.45243 16.6772 9.11972 16.9892 11.2233C17.3056 13.357 16.218 15.4531 14.2912 16.4229C12.3645 17.3927 10.033 17.0175 8.50773 15.4923C6.98247 13.967 6.6073 11.6355 7.57709 9.70878C8.51224 7.85085 10.4947 6.77317 12.5483 6.98226ZM9.36356 10.608C8.78169 11.764 9.00679 13.1629 9.92195 14.0781C10.8371 14.9932 12.236 15.2183 13.392 14.6364C14.5481 14.0546 15.2007 12.7969 15.0108 11.5167C14.8262 10.2717 13.8864 9.28142 12.6681 9.02248L12.4833 8.98918L12.2915 8.96698C11.079 8.86586 9.91634 9.50972 9.36356 10.608ZM16.7929 5.79289C17.1834 5.40237 17.8166 5.40237 18.2071 5.79289L18.7071 6.29289C19.0976 6.68342 19.0976 7.31658 18.7071 7.70711C18.3166 8.09763 17.6834 8.09763 17.2929 7.70711L16.7929 7.20711C16.4024 6.81658 16.4024 6.18342 16.7929 5.79289Z" fill="#323438"/>
</svg>
