<svg width="24" height="24" viewBox="0 0 24 24" fill="none" xmlns="http://www.w3.org/2000/svg">
<path fill-rule="evenodd" clip-rule="evenodd" d="M12 4.99999V19C12 19.8385 11.0301 20.3047 10.3753 19.7809L5.64922 16H2C1.44772 16 1 15.5523 1 15V8.99999C1 8.4477 1.44772 7.99999 2 7.99999H5.64922L10.3753 4.21912C11.0301 3.69531 12 4.16148 12 4.99999ZM10 7.08061L6.62469 9.78085C6.44738 9.9227 6.22707 9.99999 6 9.99999H3V14H6C6.22707 14 6.44738 14.0773 6.62469 14.2191L10 16.9194V7.08061ZM16.2929 8.29288C16.6834 7.90235 17.3166 7.90235 17.7071 8.29288L20 10.5851L22.2929 8.29288C22.6534 7.93239 23.2206 7.90466 23.6129 8.20969L23.7071 8.29288C24.0976 8.6834 24.0976 9.31657 23.7071 9.70709L21.414 11.9991L23.7071 14.2929C24.0676 14.6534 24.0953 15.2206 23.7903 15.6129L23.7071 15.7071C23.3166 16.0976 22.6834 16.0976 22.2929 15.7071L20 13.4141L17.7071 15.7071C17.3466 16.0676 16.7794 16.0953 16.3871 15.7903L16.2929 15.7071C15.9024 15.3166 15.9024 14.6834 16.2929 14.2929L18.585 11.9991L16.2929 9.70709C15.9324 9.34661 15.9047 8.77938 16.2097 8.38709L16.2929 8.29288Z" fill="currentColor"/>
</svg>
