<svg width="24" height="24" viewBox="0 0 24 24" fill="none" xmlns="http://www.w3.org/2000/svg">
<path fill-rule="evenodd" clip-rule="evenodd" d="M19.6522 1.00016C21.3309 0.970469 22.7659 2.20222 22.9909 3.86596L22.9999 4V11L22.9909 11.134C22.7659 12.7978 21.3309 14.0295 19.6699 14L17.6494 13.9995L13.9137 22.4061C13.7532 22.7673 13.3951 23 12.9999 23C10.7908 23 8.99992 21.2091 8.99992 19V16L4.35125 15.9999C3.47112 16.0099 2.63102 15.6329 2.05346 14.9687C1.4759 14.3045 1.21916 13.4202 1.35147 12.5484L2.73123 3.55006C2.95553 2.071 4.23521 0.983215 5.71992 0.999681L19.6522 1.00016ZM15.9999 2.99974H5.70875C5.21002 2.99423 4.78339 3.35689 4.70837 3.85156L3.3286 12.8501C3.28457 13.1401 3.37015 13.4349 3.56267 13.6563C3.75519 13.8777 4.03522 14.0034 4.33992 14H9.99992C10.5522 14 10.9999 14.4477 10.9999 15V19C10.9999 19.8926 11.5846 20.6486 12.3919 20.9059L15.9999 12.7878V2.99974ZM17.9994 11.9995L19.6876 12.0002C20.3325 12.0116 20.8866 11.5525 20.9999 10.9232V4.07677L20.9715 3.95328C20.8122 3.3884 20.2879 2.98921 19.6699 3L17.9994 2.9995V11.9995Z" fill="currentColor"/>
</svg>
