<svg width="24" height="24" viewBox="0 0 24 24" fill="none" xmlns="http://www.w3.org/2000/svg">
<path fill-rule="evenodd" clip-rule="evenodd" d="M7.78125 5.00781C8.21875 5.00781 8.59765 5.13281 8.91797 5.38281C9.23828 5.63281 9.39844 6.01562 9.39844 6.53125C9.39844 6.75 9.32813 6.98437 9.1875 7.23438C9.04687 7.48438 8.88281 7.72656 8.69531 7.96094C8.39844 8.36719 8.14453 8.78906 7.93359 9.22656C7.72266 9.66406 7.60938 10.0859 7.59375 10.4922C8.70313 10.6484 9.60547 11.1211 10.3008 11.9102C10.9961 12.6992 11.3438 13.6562 11.3438 14.7812C11.3438 16.0625 10.8906 17.1211 9.98438 17.957C9.07812 18.793 7.98438 19.2109 6.70312 19.2109C6.07812 19.2109 5.47657 19.1016 4.89844 18.8828C4.33593 18.6641 3.83985 18.3477 3.41016 17.9336C2.98047 17.5195 2.64063 17.0234 2.39062 16.4453C2.125 15.8828 1.99219 15.25 1.99219 14.5469C1.99219 13.5156 2.10937 12.5234 2.34375 11.5703C2.57813 10.6172 2.89844 9.74219 3.30469 8.94531C3.71094 8.14843 4.19531 7.44532 4.75781 6.83594C5.30469 6.21093 5.90625 5.71875 6.5625 5.35938H6.58594C6.74219 5.28125 6.92578 5.20313 7.13672 5.125C7.34766 5.04687 7.5625 5.00781 7.78125 5.00781ZM18.4453 5.00781C18.8828 5.00781 19.2617 5.13281 19.582 5.38281C19.9023 5.63281 20.0625 6.01562 20.0625 6.53125C20.0625 6.75 19.9922 6.98437 19.8516 7.23438C19.7109 7.48438 19.5469 7.72656 19.3594 7.96094C19.0625 8.36719 18.8086 8.78906 18.5977 9.22656C18.3867 9.66406 18.2734 10.0859 18.2578 10.4922C19.3672 10.6484 20.2695 11.1211 20.9648 11.9102C21.6602 12.6992 22.0078 13.6562 22.0078 14.7812C22.0078 16.0625 21.5547 17.1211 20.6484 17.957C19.7422 18.793 18.6562 19.2109 17.3906 19.2109C16.75 19.2109 16.1406 19.1016 15.5625 18.8828C15 18.6641 14.5039 18.3477 14.0742 17.9336C13.6445 17.5195 13.3047 17.0234 13.0547 16.4453C12.7891 15.8828 12.6562 15.25 12.6562 14.5469C12.6562 13.5156 12.7734 12.5234 13.0078 11.5703C13.2422 10.6172 13.5625 9.74219 13.9688 8.94531C14.375 8.14843 14.8594 7.44532 15.4219 6.83594C15.9688 6.21093 16.5781 5.71875 17.25 5.35938C17.4063 5.28125 17.5937 5.20313 17.8125 5.125C18.0313 5.04687 18.2422 5.00781 18.4453 5.00781Z" fill="currentColor"/>
</svg>
